<?xml version="1.0" standalone="no"?><!DOCTYPE svg PUBLIC "-//W3C//DTD SVG 1.1//EN" "http://www.w3.org/Graphics/SVG/1.1/DTD/svg11.dtd"><svg t="1576200813672" class="icon" viewBox="0 0 1778 1024" version="1.1" xmlns="http://www.w3.org/2000/svg" p-id="1582" xmlns:xlink="http://www.w3.org/1999/xlink" width="347.265625" height="200"><defs><style type="text/css"></style></defs><path d="M893.832885 9.43086q16.196476 0.660616 32.347393 0c103.807795-4.032034 661.435843 13.440114 319.601352 892.970279-75.173518 175.404876-265.613098 180.416444-305.705641-240.532479h-60.89055c-10.296494 108.158747-30.525004 188.184374-56.17512 244.450614-74.171205 162.670938-193.62876 126.42819-249.530522-3.918135-341.83449-879.575725 216.408614-897.002314 320.353088-892.970279z" fill="#FFF6B3" p-id="1583"></path><path d="M643.596188 65.104823S254.265702-205.97544 55.534255 708.931838c-3.918135 18.087204 8.565225 66.198256 31.436199 76.130273 81.278519 35.285994 282.037373 145.335469 210.987008-361.129027a196.65848 196.65848 0 0 1 7.972949-90.43602c60.571632-179.004093 218.686599-296.5937 290.739278-236.637125M1189.811529 65.104823s389.330486-271.080263 588.153052 643.827015c3.940915 18.087204-8.542445 66.198256-31.436198 76.130273-81.278519 35.285994-282.014593 145.335469-210.987009-361.129027a196.954618 196.954618 0 0 0-7.950169-90.43602c-60.594412-179.004093-218.686599-296.5937-290.739277-236.637125" fill="#FFF6B3" p-id="1584"></path><path d="M1072.996437 1023.97722a96.176544 96.176544 0 0 1-14.852465-1.161772c-41.003737-6.423919-78.226019-39.363588-107.361452-95.24257-31.891796-61.095569-53.578217-147.385656-64.603666-256.523937h-44.284036c-10.023136 98.932906-28.907635 179.345791-56.15234 239.188468-33.486385 73.41947-79.729489 113.762591-130.528564 113.762591h-1.093433c-52.894821-0.615056-103.192739-44.671294-134.583378-117.862965l-0.113899-0.296138c-133.672184-343.975796-145.904965-596.28546-36.447767-749.867236S790.503467-1.867948 848.478196 0.387258c10.478733 0.410037 21.116925 0.410037 31.641217 0 57.997508-2.277985 255.703862 2.277985 364.933262 155.404164 109.525538 153.558996 97.247197 405.91422-36.447766 750.049475l-0.1139 0.296138c-31.755117 74.080085-82.66809 117.840185-135.494572 117.840185zM825.333864 652.825058h77.451504l0.797295 8.269087c19.317316 202.740701 78.180459 331.332977 157.454351 343.725218 49.341164 7.722371 99.434063-32.82577 130.733582-105.766863 71.095925-182.990568 107.72593-341.151095 108.864923-470.107848 0.956754-107.520911-22.779854-195.906745-70.27585-262.628937-103.944474-145.791066-293.700658-149.936999-349.397401-147.772914-10.97989 0.432817-22.096458 0.432817-33.053569 0-55.787863-2.277985-245.885745 2.072967-349.966898 148.069052-47.609895 66.744972-71.255384 155.108026-70.321409 262.606157 1.138993 128.933974 37.746218 287.026161 108.796583 469.92561 28.452038 66.289375 72.553835 106.15412 117.976864 106.678056h0.888414c43.167823 0 83.602064-36.447767 113.899271-103.101619 27.176366-59.592098 45.810287-140.847838 55.400605-241.466453z" fill="#333333" p-id="1585"></path><path d="M865.836444 667.404164c-34.169781 0-66.517174-8.724684-90.937177-24.579462-25.627336-16.652073-39.750845-39.181349-39.750845-63.464674s14.12351-46.8126 39.750845-63.441893c24.420004-15.945898 56.721837-24.602242 90.937177-24.602242s66.517174 8.747464 90.937178 24.602242c25.627336 16.629293 39.750845 39.181349 39.750845 63.441893s-14.12351 46.8126-39.750845 63.464674c-24.420004 15.854778-56.721837 24.579463-90.937178 24.579462z m0-157.864388c-62.006763 0-112.46414 31.322299-112.464139 69.820252s50.457377 69.820253 112.464139 69.820253 112.46414-31.322299 112.46414-69.820253-50.457377-69.820253-112.46414-69.820252z" fill="#333333" p-id="1586"></path><path d="M598.03648 326.048051a77.041466 66.699413 90 1 0 133.398825 0 77.041466 66.699413 90 1 0-133.398825 0Z" fill="#FFFFFF" p-id="1587"></path><path d="M664.735893 412.201459c-41.801032 0-75.811354-38.725752-75.811355-86.176188s34.010322-86.153408 75.811355-86.153408 75.811354 38.725752 75.811354 86.153408-34.010322 86.176188-75.811354 86.176188z m0-154.105712c-31.755117 0-57.587471 30.479445-57.587471 67.929524s25.832355 67.952305 57.587471 67.952305 57.587471-30.479445 57.587471-67.952305-25.832355-67.929525-57.587471-67.929524z" fill="#333333" p-id="1588"></path><path d="M1004.201278 326.048051a77.041466 66.699413 90 1 0 133.398825 0 77.041466 66.699413 90 1 0-133.398825 0Z" fill="#FFFFFF" p-id="1589"></path><path d="M1070.900691 412.201459c-41.801032 0-75.811354-38.725752-75.811355-86.176188s34.010322-86.153408 75.811355-86.153408 75.811354 38.725752 75.811354 86.153408-34.010322 86.176188-75.811354 86.176188z m0-154.105712c-31.755117 0-57.587471 30.479445-57.587471 67.929524s25.832355 67.952305 57.587471 67.952305 57.564691-30.456665 57.564691-67.952305-25.809575-67.929525-57.564691-67.929524zM859.663104 979.898203c-2.027407 0-4.054814 0-6.105001-0.250579-52.712582-4.555971-83.146467-66.653853-84.422139-69.296316a9.111942 9.111942 0 0 1 16.424275-7.904609c0.273358 0.569496 27.335825 55.423385 69.638014 59.045381 27.973661 2.277985 57.564691-17.927745 87.907456-60.389393a9.118776 9.118776 0 1 1 14.829685 10.615412c-32.210714 45.28635-65.309842 68.180103-98.27229 68.180104zM156.813487 829.255028c-38.566293 0-78.499377-17.791066-108.454886-31.117281-3.735896-1.662929-7.312333-3.257519-10.683751-4.71543C9.974547 781.371774-3.693365 728.750311 0.862606 706.995551c45.30913-208.458445 104.400071-372.427834 175.655454-487.488877 57.74693-93.146823 123.740167-154.789108 196.134544-183.218366 126.40541-49.660082 226.29507 18.223883 230.486563 21.253603a9.111942 9.111942 0 1 1-10.410393 14.943585c-1.093433-0.751735-96.609361-65.309842-213.743371-19.112298C310.395263 80.412885 247.431746 139.640505 191.848902 229.39313c-70.093611 113.170315-128.341698 275.135077-173.126891 481.383877-3.234739 14.829685 8.519665 58.179747 26.151273 65.833778 3.416978 1.480691 7.061755 3.09806 10.86599 4.783769 42.14273 18.7706 105.812422 47.131518 149.276384 14.396868 54.124933-40.798719 66.995551-165.51842 38.201815-370.696565a206.954974 206.954974 0 0 1 8.360207-94.604734c47.040399-138.95711 146.611141-232.878448 220.668446-253.790354 33.600285-9.499199 62.826838-4.966008 84.513258 13.075636a9.111942 9.111942 0 1 1-11.640505 14.00961c-21.321943-17.722726-48.703328-14.989144-67.929525-9.544759-36.835024 10.501513-77.679302 39.204129-115.106602 81.005161a468.034882 468.034882 0 0 0-93.192383 161.167468 188.685531 188.685531 0 0 0-7.562912 86.335647c30.183307 215.224061 15.353622 342.062289-45.30913 387.781456-18.178324 13.599573-38.497953 18.72504-59.20484 18.72504zM1585.474814 829.255028c-20.729667 0-41.003737-5.125467-59.22762-18.81616-60.639972-45.719167-75.469657-172.557395-45.28635-387.690336a188.685531 188.685531 0 0 0-7.562912-86.244528 468.399359 468.399359 0 0 0-93.192383-161.167467c-37.40452-41.778252-78.294358-70.617548-115.174942-80.914042-19.203417-5.444385-46.584802-8.200747-67.906745 9.544759a9.11422 9.11422 0 1 1-11.663285-14.00961c21.709201-18.064424 50.935754-22.574835 84.536038-13.075637 74.057306 20.911906 173.628048 114.810464 220.668447 253.790355a206.954974 206.954974 0 0 1 8.337426 94.604734c-28.770956 205.178146-15.945898 329.897847 38.224595 370.696565 43.441182 32.73465 107.065314 4.373732 149.276384-14.396868 3.804236-1.685709 7.426232-3.303079 10.843211-4.783769 17.631607-7.654031 29.386012-51.004093 26.151272-65.833779-44.807973-206.248799-103.07884-368.213561-173.126891-481.383876-55.582844-89.752625-118.455241-148.980246-187.159281-176.019932-117.225129-46.243104-212.786617 18.451682-213.743371 19.112297a9.111942 9.111942 0 1 1-10.410393-14.943584c4.191493-2.938601 104.081153-70.913686 230.509343-21.253604 72.394376 28.429258 138.364834 90.071543 196.111764 183.218367 71.255384 114.969923 130.369105 278.939313 175.655455 487.488877 4.73821 21.754761-8.952483 74.376224-36.698345 86.426766-3.371418 1.457911-6.833956 3.0525-10.706532 4.71543-29.978288 13.143976-69.888592 30.935042-108.454885 30.935042z" fill="#333333" p-id="1590"></path><path d="M689.292575 326.048051m-30.319985 0a30.319986 30.319986 0 1 0 60.639971 0 30.319986 30.319986 0 1 0-60.639971 0Z" fill="#333333" p-id="1591"></path><path d="M1044.658299 326.048051m-30.319986 0a30.319986 30.319986 0 1 0 60.639972 0 30.319986 30.319986 0 1 0-60.639972 0Z" fill="#333333" p-id="1592"></path><path d="M482.815978 507.785727a97.748354 49.773981 0 1 0 195.496708 0 97.748354 49.773981 0 1 0-195.496708 0Z" fill="#EA7A7A" p-id="1593"></path><path d="M1039.85175 507.785727a97.748354 49.773981 0 1 0 195.496707 0 97.748354 49.773981 0 1 0-195.496707 0Z" fill="#EA7A7A" p-id="1594"></path></svg>